<svg width="100" height="100" viewBox="0 0 100 100" fill="none" xmlns="http://www.w3.org/2000/svg">
<circle cx="50" cy="50" r="50" fill="#EDF6FA"/>
<path d="M62.6923 45.8394H73.2692C74.4327 45.8394 75.3846 46.7767 75.3846 47.9223V54.1709H60.5769V47.9223C60.5769 46.7767 61.5288 45.8394 62.6923 45.8394Z" stroke="#6BB5D8" stroke-width="2.5" stroke-linecap="round" stroke-linejoin="round"/>
<path d="M73.2692 45.8394H62.6923V32.6234C62.6923 30.4155 63.5807 28.291 65.1673 26.7288L66.923 25L71.3865 27.9265C72.5605 28.6971 73.2692 29.9989 73.2692 31.3945V45.829V45.8394Z" stroke="#6BB5D8" stroke-width="2.5" stroke-linecap="round" stroke-linejoin="round"/>
<path d="M58.4613 70.8344C58.4613 73.136 60.3546 75.0002 62.6921 75.0002H73.269C75.6065 75.0002 77.4998 73.136 77.4998 70.8344V68.7515H58.4613V70.8344Z" stroke="#6BB5D8" stroke-width="2.5" stroke-linecap="round" stroke-linejoin="round"/>
<path d="M77.4998 54.1711H58.4613V68.7514H77.4998V54.1711Z" stroke="#6BB5D8" stroke-width="2.5" stroke-linecap="round" stroke-linejoin="round"/>
<path d="M31.8922 48.2764H44.4153V68.845C44.4153 72.2401 41.6124 74.9999 38.1643 74.9999H38.1432C34.6951 74.9999 31.8922 72.2401 31.8922 68.845V48.2764Z" stroke="#6BB5D8" stroke-width="2.5" stroke-linecap="round" stroke-linejoin="round"/>
<path d="M44.4153 48.2764H31.8922V58.5555H44.4153V48.2764Z" stroke="#6BB5D8" stroke-width="2.5" stroke-linecap="round" stroke-linejoin="round"/>
<path d="M38.1538 25.0103C31.4587 25.0103 25.6308 28.6032 22.5 33.9146L31.8923 48.2762H44.4154L53.8077 33.9146C50.6769 28.6032 44.849 25.0103 38.1538 25.0103Z" stroke="#6BB5D8" stroke-width="2.5" stroke-linecap="round" stroke-linejoin="round"/>
<path d="M49.4288 28.9157L47.5462 33.2377M49.4288 28.9157C47.8317 27.6555 46.0231 26.6557 44.0452 25.9892M49.4288 28.9157C51.1846 30.3008 52.676 31.9984 53.8077 33.925L44.4154 48.2866H31.8923L22.5 33.925C23.674 31.9255 25.2183 30.1758 27.0587 28.7699M44.0452 25.9892L42.3317 35.2893M44.0452 25.9892C42.1942 25.3643 40.2163 25.0207 38.1538 25.0207V33.2377V25.0103C36.0279 25.0103 33.9971 25.3748 32.1038 26.0413M32.1038 26.0413L33.9865 35.2893M32.1038 26.0413C30.274 26.687 28.5712 27.6139 27.0587 28.7699M27.0587 28.7699L28.7615 33.2377" stroke="#6BB5D8" stroke-width="2.5" stroke-linecap="round" stroke-linejoin="round"/>
</svg>
