<svg width="181" height="24" viewBox="0 0 181 24" fill="none" xmlns="http://www.w3.org/2000/svg">
<g clip-path="url(#clip0_1242_330)">
<path d="M0 10.1102L5.64263 15.6303C8.19253 18.1254 12.3174 18.1184 14.8566 15.6127L4.59625 5.57617L0 10.1102Z" fill="#6CB5D9"/>
<path d="M31.738 10.0434L26.0954 4.52325C23.5455 2.02815 19.4207 2.03517 16.8815 4.5408L27.1418 14.5809L31.738 10.0434Z" fill="#255BA2"/>
<path d="M14.8316 4.54815C12.2817 2.05305 8.15686 2.06007 5.61768 4.5657L11.2603 10.0858L15.8566 5.5483L14.8316 4.54464V4.54815Z" fill="#255BA2"/>
<path d="M15.8582 5.55374L11.2617 10.0894L15.8775 14.606L20.4739 10.0704L15.8582 5.55374Z" fill="#074B96"/>
<path d="M15.8779 14.6058L16.9029 15.6094C19.4528 18.1045 23.5776 18.0975 26.1168 15.5919L20.4742 10.0718L15.8779 14.6093V14.6058Z" fill="#6CB5D9"/>
<path d="M42.8019 1.06357C44.0697 1.10568 45.109 1.12323 45.9161 1.12323C46.7232 1.12323 47.766 1.09867 49.0445 1.04954C50.323 1.00392 51.3444 0.968822 52.1158 0.951276C52.5837 0.951276 53.2336 0.860035 54.0622 0.68457L54.605 4.70972C54.4729 4.83255 54.2193 4.89571 53.8443 4.89571C53.6943 4.89571 53.6015 4.8536 53.5622 4.76587C53.2979 3.80082 52.9479 3.14809 52.5158 2.80769C52.0837 2.46729 51.4051 2.29533 50.4838 2.29884C48.7374 2.30235 47.8231 2.45325 47.7517 2.75154C47.5839 3.26039 47.5017 4.08507 47.5017 5.22558L47.5232 14.7252C47.5232 15.6727 47.6124 16.4342 47.7803 17.0133C47.7981 17.1361 48.0517 17.2624 48.541 17.3923C49.0302 17.5221 49.3588 17.5888 49.5266 17.5888C49.6016 17.5888 49.6409 17.7467 49.6409 18.0625C49.6409 18.238 49.6231 18.3784 49.5838 18.4837C49.3409 18.4661 48.9767 18.4416 48.4981 18.4065C48.0196 18.3714 47.5767 18.3468 47.1732 18.3293C46.7696 18.3117 46.3803 18.3047 46.0018 18.3047C45.4947 18.3047 44.7947 18.3328 43.9019 18.3889C43.009 18.4416 42.4591 18.4802 42.2519 18.4977C42.1769 18.4275 42.1377 18.2871 42.1377 18.0766C42.1377 17.7607 42.1734 17.6028 42.2484 17.6028C42.4734 17.6028 42.8269 17.5397 43.3055 17.4168C43.784 17.294 44.0519 17.1607 44.109 17.0203C44.259 16.5465 44.3304 15.8166 44.3304 14.834L44.309 5.3063C44.309 3.84995 44.2197 3.0007 44.0483 2.75505C43.8983 2.45676 43.0055 2.30937 41.3698 2.31288C40.4484 2.31288 39.7735 2.48834 39.3413 2.82874C38.9092 3.17265 38.5557 3.81836 38.2735 4.76587C38.2557 4.87115 38.1628 4.92379 37.9914 4.92379C37.6343 4.92379 37.3878 4.8536 37.2593 4.71323L37.7878 0.712645C38.6164 0.888109 39.2628 0.972332 39.7342 0.972332C40.5056 0.989878 41.5234 1.01795 42.7912 1.05655L42.8019 1.06357Z" fill="#0A2947"/>
<path d="M65.2974 6.71324C67.7045 6.70973 68.908 8.43279 68.9187 11.8894L68.9258 14.5986C68.9258 15.6689 69.0044 16.4585 69.158 16.9674C69.1758 17.0902 69.4258 17.2165 69.9044 17.3464C70.3829 17.4762 70.7079 17.5429 70.8758 17.5429C70.9329 17.5429 70.9651 17.6692 70.9758 17.9254C70.9865 18.1816 70.9793 18.35 70.9615 18.4378C70.8293 18.4202 70.3258 18.3851 69.4544 18.336C68.583 18.2869 67.9366 18.2588 67.5223 18.2623C67.0509 18.2623 66.4188 18.2904 65.6188 18.3465C64.8189 18.3992 64.326 18.4378 64.1403 18.4553C64.0832 18.3851 64.0546 18.2167 64.0546 17.9535C64.0546 17.6903 64.0832 17.5604 64.1367 17.5604C64.3617 17.5604 64.6867 17.4938 65.1081 17.3604C65.5295 17.2271 65.7688 17.1007 65.826 16.9779C65.9367 16.4515 65.9938 15.8093 65.9902 15.0548L65.9831 12.4755C65.9831 11.0191 65.7653 10.0155 65.3438 9.46452C64.9189 8.91356 64.2475 8.63633 63.3261 8.63984C62.7618 8.63984 62.244 8.79073 61.7761 9.08902C61.3083 9.38731 61.0726 9.72069 61.0726 10.0892L61.0833 14.6161C61.0833 15.6865 61.1619 16.4761 61.3154 16.9849C61.3547 17.1077 61.6011 17.2341 62.0618 17.3639C62.5225 17.4938 62.8368 17.5604 63.0046 17.5604C63.0618 17.5604 63.0939 17.6868 63.1046 17.9429C63.1154 18.1991 63.1011 18.3676 63.0654 18.4553C62.9154 18.4378 62.4225 18.4027 61.5833 18.3535C60.7476 18.3044 60.1119 18.2763 59.6798 18.2798C59.2477 18.2833 58.5762 18.3079 57.7191 18.3641C56.862 18.4167 56.3621 18.4553 56.2121 18.4729C56.1371 18.4027 56.0978 18.2342 56.0978 17.9745C56.0978 17.7148 56.1335 17.5815 56.2085 17.5815C56.4335 17.5815 56.7763 17.5148 57.237 17.3815C57.6977 17.2481 57.9441 17.1218 57.9834 16.999C58.112 16.4726 58.1798 15.8409 58.1763 15.1039L58.1513 4.15497C58.1513 3.45311 58.1013 2.85653 58.0048 2.36523C57.912 2.08449 57.4227 1.94412 56.537 1.94763H56.2835C56.1692 1.94763 56.1156 1.80726 56.1121 1.52651C56.1085 1.24577 56.1692 1.1054 56.2799 1.1054C56.862 1.05276 57.4156 0.979066 57.9441 0.891334C58.4691 0.803602 58.9048 0.71587 59.2548 0.624629C59.6012 0.536896 59.9012 0.449164 60.1548 0.357923C60.4083 0.270191 60.6762 0.182459 60.9583 0.0947266H61.0154C61.0904 0.0947266 61.1654 0.143857 61.2404 0.238607C61.3154 0.333358 61.3619 0.428109 61.3833 0.515841C61.1583 1.20015 61.0476 2.02483 61.0512 2.98989L61.0619 8.30645C61.0619 8.41173 61.1012 8.46437 61.1761 8.46437C61.194 8.46437 61.2333 8.43981 61.2869 8.38366C61.6797 7.96254 62.2583 7.58003 63.0189 7.23612C63.7796 6.89221 64.5367 6.72026 65.2867 6.71675L65.2974 6.71324Z" fill="#0A2947"/>
<path d="M77.2648 14.581C77.2648 15.6513 77.3434 16.4409 77.497 16.9498C77.5363 17.0726 77.7898 17.1989 78.2577 17.3288C78.7291 17.4586 79.0469 17.5253 79.2183 17.5253C79.2933 17.5253 79.3362 17.6516 79.3469 17.9078C79.3576 18.164 79.3433 18.3324 79.3076 18.4202C79.1755 18.4026 78.6719 18.3675 77.8005 18.3184C76.9291 18.2693 76.2827 18.2412 75.8685 18.2447C75.3971 18.2447 74.7364 18.2728 73.8828 18.3289C73.0257 18.3816 72.5329 18.4202 72.4043 18.4377C72.3293 18.3675 72.29 18.1991 72.29 17.9394C72.29 17.6797 72.3258 17.5464 72.4007 17.5464C72.6079 17.5464 72.9472 17.4797 73.415 17.3463C73.8828 17.213 74.1364 17.0866 74.1757 16.9638C74.3042 16.4374 74.3721 15.7952 74.3685 15.0407L74.3578 10.7524C74.3578 9.9277 74.2043 9.36621 73.9043 9.06792C73.7364 8.89246 73.5186 8.76261 73.2543 8.67488C72.99 8.58715 72.765 8.53451 72.5757 8.51696C72.3865 8.49942 72.2936 8.47485 72.2936 8.43976C72.2936 7.93091 72.3472 7.66772 72.4615 7.65017C72.9864 7.61508 73.7471 7.50629 74.7435 7.33082C75.7399 7.15536 76.4827 6.99393 76.9684 6.85356C76.9863 6.85356 77.0613 6.83601 77.1934 6.80092C77.2863 6.80092 77.3613 6.86058 77.4184 6.98341C77.4755 7.10623 77.4934 7.20449 77.4755 7.27117C77.3256 8.39414 77.2541 9.14863 77.2541 9.53466L77.2648 14.588V14.581ZM74.3078 3.57238C73.9685 3.24953 73.7971 2.8635 73.7971 2.41432C73.7971 1.96864 73.965 1.58612 74.3007 1.27029C74.6399 0.954453 75.0506 0.796535 75.5399 0.793026C76.0292 0.789517 76.4434 0.947434 76.7827 1.26327C77.122 1.57911 77.2934 1.95811 77.2934 2.4073C77.2934 2.85649 77.1256 3.24251 76.7899 3.56536C76.4506 3.89172 76.0399 4.05315 75.5506 4.05315C75.0614 4.05315 74.6471 3.89172 74.3078 3.56887V3.57238Z" fill="#0A2947"/>
<path d="M89.0894 6.66406C90.1215 6.66406 90.8929 6.94831 91.4036 7.52735C91.4036 9.01879 90.9572 9.76627 90.0536 9.76627C89.7144 9.76627 89.3501 9.59081 88.9537 9.24339C88.5573 8.89246 88.1537 8.71699 87.7394 8.7205C87.1573 8.7205 86.7002 8.99774 86.3752 9.5522C86.0466 10.1067 85.8824 10.6822 85.8859 11.2753L85.8931 14.5635C85.8931 15.6338 85.9645 16.4234 86.0966 16.9322C86.1359 17.0551 86.3823 17.1814 86.843 17.3112C87.3037 17.4411 87.618 17.5078 87.7894 17.5078C87.8466 17.5078 87.8787 17.6341 87.8894 17.8903C87.9001 18.1464 87.893 18.3149 87.8751 18.4026C87.7252 18.3851 87.2252 18.35 86.3824 18.3009C85.536 18.2517 84.8967 18.2236 84.4646 18.2272C84.0324 18.2307 83.361 18.2552 82.5039 18.3114C81.6504 18.364 81.1468 18.4026 80.9969 18.4202C80.9219 18.35 80.8826 18.1815 80.8826 17.9218C80.8826 17.6622 80.9183 17.5288 80.9933 17.5288C81.2183 17.5288 81.5611 17.4621 82.0218 17.3288C82.4825 17.1954 82.7289 17.0691 82.7682 16.9463C82.8968 16.4199 82.9646 15.7777 82.9611 15.0232L82.9503 10.7348C82.9503 9.91015 82.7968 9.34867 82.4968 9.05038C82.3468 8.87491 82.1325 8.74507 81.8611 8.65734C81.5897 8.5696 81.3611 8.51696 81.1861 8.49942C81.0076 8.48187 80.9183 8.45731 80.9183 8.42221C80.9183 7.91337 80.9647 7.65017 81.0576 7.63263C81.9218 7.56244 83.4325 7.29573 85.5931 6.83251C85.7252 6.79742 85.8002 6.77987 85.8181 6.77987C85.8931 6.77987 85.9574 6.83953 86.0145 6.96235C86.0717 7.08518 86.0931 7.18695 86.0859 7.26415C86.0752 7.34135 86.0609 7.46769 86.0431 7.63263C86.0252 7.79756 86.0002 7.97654 85.9752 8.15902C85.9467 8.34501 85.9324 8.46082 85.9324 8.51346C86.2681 8.0397 86.7288 7.61157 87.3109 7.23257C87.893 6.85356 88.4823 6.66406 89.0858 6.66406H89.0894Z" fill="#0A2947"/>
<path d="M99.0068 6.59053C99.8139 6.59053 100.5 6.70984 101.064 6.95549C101.157 6.95549 101.203 6.81512 101.203 6.53438V4.06033C101.196 3.39357 101.139 2.79699 101.025 2.2706C100.928 1.98986 100.442 1.84948 99.5568 1.85299H99.3318C99.2175 1.85299 99.1639 1.71262 99.1604 1.43188C99.1568 1.15114 99.2139 1.01077 99.3282 1.01077C99.8925 0.958126 100.442 0.884431 100.978 0.796699C101.514 0.708967 101.957 0.621235 102.303 0.529993C102.65 0.442261 102.95 0.354529 103.203 0.263288C103.457 0.175556 103.649 0.108879 103.782 0.0632585C103.914 0.0176377 103.989 -0.00341797 104.007 -0.00341797H104.064C104.139 -0.00341797 104.214 0.045712 104.289 0.140463C104.364 0.235213 104.403 0.329964 104.403 0.417696C104.217 1.10201 104.124 1.92669 104.128 2.89174L104.153 14.4724C104.153 15.2795 104.214 15.9287 104.328 16.42C104.346 16.5429 104.442 16.6376 104.61 16.7078C104.778 16.778 104.957 16.8201 105.146 16.8376C105.335 16.8552 105.514 16.8692 105.682 16.8762C105.849 16.8868 105.946 16.8903 105.964 16.8903C105.999 16.9254 106.021 17.0307 106.021 17.2061C106.021 17.557 105.964 17.7325 105.853 17.7325C105.589 17.7501 105.257 17.7851 104.853 17.8413C104.449 17.8939 104.053 17.9536 103.671 18.0133C103.285 18.0764 102.921 18.1361 102.571 18.1992C102.225 18.2624 101.832 18.3361 101.403 18.4238C101.289 18.4238 101.235 18.2764 101.232 17.9782V17.5325C101.232 17.4798 101.217 17.4447 101.189 17.4272C101.16 17.4097 101.135 17.4097 101.117 17.4272C100.217 18.0799 99.2389 18.4063 98.189 18.4063C96.6676 18.4063 95.3391 17.8904 94.2106 16.8482C93.082 15.8059 92.5142 14.4969 92.5106 12.9178C92.5071 11.1807 93.1463 9.69274 94.432 8.45396C95.7177 7.21518 97.2426 6.59404 99.0104 6.59053H99.0068ZM98.7568 7.85387C97.7604 7.85387 97.0105 8.25393 96.5033 9.04352C95.9962 9.83311 95.7462 10.8964 95.7498 12.2299C95.7498 13.7214 96.0462 14.883 96.6319 15.7147C97.2176 16.5464 98.0354 16.9605 99.0889 16.9605C99.7282 16.9605 100.246 16.8061 100.639 16.4972C101.032 16.1884 101.228 15.7989 101.228 15.3251L101.217 9.79802C101.217 9.62255 101.185 9.44007 101.117 9.24706C101.05 9.05405 100.939 8.847 100.778 8.62942C100.617 8.41185 100.364 8.22586 100.014 8.07847C99.6675 7.93108 99.2461 7.85738 98.7604 7.85738L98.7568 7.85387Z" fill="#0A2947"/>
<path d="M114.821 5.34493C114.821 4.02895 115.406 2.92001 116.588 2.01111C117.77 1.10571 119.103 0.649505 120.588 0.645996C121.113 0.645996 121.574 0.670561 121.97 0.7232C122.363 0.77584 122.913 0.884627 123.62 1.04956C124.324 1.2145 124.809 1.32329 125.074 1.37593C125.302 2.56908 125.417 3.92016 125.42 5.42915C125.384 5.58707 125.27 5.66778 125.084 5.66778C124.577 5.66778 124.302 5.59058 124.267 5.43266C124.152 4.62552 123.745 3.83594 123.049 3.0674C122.352 2.29536 121.506 1.91285 120.51 1.91636C119.645 1.91636 118.985 2.14797 118.524 2.60418C118.063 3.06038 117.835 3.67802 117.838 4.44655C117.838 4.70975 117.87 4.95891 117.938 5.19754C118.003 5.43617 118.138 5.66778 118.335 5.89589C118.531 6.12399 118.692 6.31349 118.813 6.46088C118.935 6.60827 119.17 6.79777 119.52 7.02588C119.867 7.25398 120.102 7.4119 120.227 7.49963C120.349 7.58736 120.631 7.75932 121.074 8.01198C121.517 8.26465 121.785 8.40853 121.877 8.44363C121.992 8.53136 122.306 8.71735 122.824 9.00862C123.342 9.29638 123.702 9.50694 123.909 9.63678C124.117 9.76663 124.417 9.99122 124.813 10.3071C125.209 10.6229 125.495 10.9212 125.674 11.1984C125.852 11.4792 126.017 11.8336 126.17 12.2617C126.32 12.6899 126.399 13.1531 126.399 13.6444C126.399 15.0481 125.799 16.2062 124.588 17.1221C123.377 18.038 121.974 18.4942 120.377 18.4977C119.249 18.4977 117.52 18.2591 115.188 17.7713C115.017 17.1396 114.86 16.3465 114.717 15.392C114.574 14.4375 114.503 13.8093 114.503 13.511C114.521 13.3707 114.671 13.3005 114.953 13.3005C115.442 13.3005 115.713 13.3707 115.77 13.511C115.845 13.8269 115.978 14.1743 116.167 14.5498C116.356 14.9288 116.613 15.3288 116.945 15.7605C117.274 16.1886 117.717 16.5395 118.274 16.8098C118.828 17.08 119.452 17.2168 120.149 17.2133C121.031 17.2133 121.763 16.9642 122.345 16.4729C122.927 15.9816 123.217 15.2446 123.213 14.262C123.213 13.9637 123.152 13.676 123.027 13.3952C122.906 13.1145 122.763 12.8794 122.602 12.6864C122.442 12.4933 122.206 12.2828 121.895 12.0547C121.585 11.8266 121.327 11.6511 121.12 11.5283C120.913 11.4055 120.606 11.237 120.202 11.0159C119.799 10.7984 119.51 10.6439 119.342 10.5562C119.285 10.5036 119.181 10.4334 119.031 10.3457C118.485 10.0298 118.07 9.78768 117.788 9.61222C117.506 9.43675 117.142 9.18058 116.703 8.83667C116.26 8.49627 115.924 8.17692 115.699 7.87863C115.474 7.58034 115.271 7.21187 115.092 6.77321C114.913 6.33455 114.821 5.86079 114.821 5.35195V5.34493Z" fill="#0A2947"/>
<path d="M134.655 6.56934C135.652 6.56934 136.541 6.72024 137.32 7.02554C138.098 7.33085 138.659 7.66774 138.998 8.03622C138.998 8.6328 138.891 9.1276 138.677 9.52415C138.462 9.9207 138.137 10.1172 137.705 10.1172C137.348 10.1172 137.063 10.0295 136.845 9.85754C136.627 9.68558 136.405 9.39431 136.18 8.99074C135.745 8.18361 135.116 7.78355 134.288 7.78355C133.459 7.78355 132.838 8.16957 132.359 8.93109C131.881 9.69611 131.645 10.6577 131.645 11.8157C131.645 13.3949 131.998 14.5635 132.695 15.325C133.391 16.0865 134.277 16.4655 135.348 16.4655C135.63 16.4655 135.902 16.4515 136.166 16.4234C136.43 16.3953 136.673 16.3532 136.898 16.2901C137.123 16.2269 137.32 16.1707 137.491 16.1181C137.659 16.0655 137.834 15.9847 138.012 15.8795C138.191 15.7742 138.316 15.7005 138.395 15.6549C138.47 15.6128 138.655 15.4934 138.959 15.2969C138.995 15.3145 139.045 15.3671 139.102 15.4548C139.159 15.5426 139.187 15.6303 139.187 15.718C139.187 15.9111 139.13 16.0795 139.02 16.2199C138.737 16.6936 138.184 17.1709 137.359 17.6446C136.534 18.1219 135.613 18.3605 134.598 18.3605C132.927 18.3605 131.502 17.7955 130.324 16.6585C129.145 15.5215 128.556 14.1283 128.552 12.479C128.549 10.8296 129.109 9.49959 130.234 8.331C131.359 7.16241 132.834 6.57635 134.655 6.57285V6.56934Z" fill="#0A2947"/>
<path d="M147.23 6.54152C148.998 6.53801 150.505 7.11002 151.758 8.25756C153.012 9.4051 153.637 10.7948 153.64 12.4231C153.64 14.0549 153.03 15.4516 151.801 16.6132C150.573 17.7747 149.066 18.3573 147.28 18.3608C145.494 18.3643 143.98 17.7888 142.737 16.6342C141.494 15.4797 140.873 14.0865 140.87 12.4547C140.87 10.8053 141.477 9.40861 142.705 8.26809C143.934 7.12406 145.441 6.55205 147.226 6.54854L147.23 6.54152ZM146.866 7.7803C145.984 7.7803 145.298 8.18387 144.812 8.98047C144.327 9.78059 144.084 10.7316 144.087 11.837C144.087 13.2583 144.398 14.4936 145.012 15.5463C145.626 16.5991 146.476 17.122 147.566 17.1185C148.448 17.1185 149.137 16.7114 149.633 15.9043C150.13 15.0972 150.376 14.1497 150.373 13.0618C150.373 12.1494 150.248 11.3036 150.001 10.5246C149.755 9.7455 149.358 9.09277 148.812 8.56638C148.266 8.03998 147.616 7.7803 146.866 7.7803Z" fill="#0A2947"/>
<path d="M162.119 6.53809C163.322 6.53809 164.394 6.82234 165.333 7.40137C166.276 7.97689 166.972 8.67875 167.422 9.50343C167.876 10.3281 168.101 11.1879 168.104 12.0828C168.108 13.89 167.458 15.3885 166.154 16.5746C164.851 17.7608 163.297 18.3574 161.494 18.3609C160.947 18.3609 160.279 18.2416 159.49 17.9959C159.415 17.9959 159.379 18.1187 159.379 18.3644V20.1541C159.387 21.242 159.462 22.0316 159.615 22.5229C159.633 22.6633 159.883 22.8001 160.362 22.93C160.84 23.0598 161.165 23.1265 161.333 23.1265C161.39 23.1265 161.422 23.2528 161.433 23.509C161.444 23.7617 161.436 23.9266 161.419 23.9968C161.286 23.9968 160.783 23.9722 159.912 23.9196C159.037 23.8669 158.394 23.8424 157.979 23.8459C157.508 23.8459 156.847 23.874 155.994 23.9301C155.137 23.9827 154.637 24.0108 154.487 24.0108C154.43 23.9406 154.401 23.7792 154.401 23.523C154.401 23.2668 154.43 23.1405 154.483 23.1405C154.708 23.1405 155.051 23.0738 155.512 22.9405C155.972 22.8071 156.23 22.6703 156.287 22.5299C156.397 22.0211 156.455 21.3894 156.451 20.6349L156.43 10.5808C156.43 9.73855 156.276 9.17005 155.976 8.87176C155.826 8.6963 155.619 8.56996 155.355 8.49276C155.09 8.41555 154.865 8.36642 154.676 8.34888C154.487 8.33133 154.394 8.30677 154.394 8.27167C154.394 7.76283 154.447 7.49963 154.562 7.48208C156.122 7.3382 157.522 7.08904 158.762 6.73812C159.101 6.65038 159.279 6.60476 159.297 6.60476C159.372 6.60476 159.412 6.78725 159.412 7.15572C159.412 7.22591 159.394 7.33118 159.354 7.47156C159.654 7.261 160.072 7.05395 160.608 6.85041C161.144 6.64687 161.644 6.5451 162.115 6.5451L162.119 6.53809ZM161.444 7.93478C160.822 7.93478 160.322 8.10323 159.937 8.43661C159.551 8.76999 159.362 9.21918 159.362 9.78067L159.372 15.2025C159.372 15.7815 159.629 16.2413 160.137 16.5817C160.644 16.9221 161.19 17.094 161.772 17.0905C162.636 17.0905 163.365 16.7185 163.954 15.9816C164.544 15.2446 164.84 14.2094 164.836 12.8759C164.836 11.4546 164.529 10.2755 163.926 9.3385C163.322 8.40152 162.494 7.93478 161.444 7.93478Z" fill="#0A2947"/>
<path d="M175.775 6.48154C176.657 6.48154 177.447 6.63945 178.143 6.96231C178.839 7.28516 179.386 7.69575 179.782 8.19407C180.179 8.69239 180.479 9.21176 180.689 9.74517C180.896 10.2786 181 10.7944 181.004 11.2857C181.004 11.6718 180.936 11.9139 180.793 12.0087C180.654 12.1069 180.364 12.1525 179.932 12.1561L173.193 12.1701C173.061 12.1701 172.997 12.2227 172.997 12.328C172.997 12.9597 173.122 13.5738 173.368 14.1704C173.615 14.767 174.032 15.2828 174.625 15.7215C175.218 16.1601 175.929 16.3777 176.754 16.3742C177.036 16.3742 177.307 16.3602 177.572 16.3321C177.836 16.304 178.079 16.2619 178.304 16.1987C178.529 16.1356 178.725 16.0794 178.896 16.0268C179.064 15.9742 179.239 15.8934 179.418 15.7882C179.596 15.6829 179.721 15.6092 179.8 15.5636C179.875 15.5215 180.061 15.4021 180.364 15.2056C180.4 15.2232 180.45 15.2758 180.507 15.3635C180.564 15.4513 180.593 15.539 180.593 15.6267C180.593 15.8197 180.536 15.9882 180.425 16.1286C180.143 16.6023 179.589 17.0796 178.764 17.5533C177.939 18.0306 177.007 18.2692 175.975 18.2692C174.34 18.2692 172.929 17.7112 171.743 16.5813C170.558 15.4513 169.961 14.0791 169.958 12.4649C169.954 10.6927 170.5 9.25387 171.597 8.14494C172.693 7.036 174.09 6.48154 175.779 6.47803L175.775 6.48154ZM175.579 7.69224C175.129 7.69224 174.725 7.81857 174.368 8.06422C174.011 8.30987 173.74 8.60816 173.554 8.95909C173.365 9.31002 173.232 9.63989 173.147 9.9452C173.061 10.254 173.022 10.5102 173.022 10.7208C173.022 10.8436 173.079 10.9032 173.19 10.9032L177.757 10.8927C177.925 10.8927 178.011 10.7594 178.011 10.4962C178.011 9.88203 177.786 9.26089 177.343 8.62922C176.9 7.99755 176.311 7.68522 175.579 7.68522V7.69224Z" fill="#0A2947"/>
</g>
<defs>
<clipPath id="clip0_1242_330">
<rect width="181" height="24" fill="white"/>
</clipPath>
</defs>
</svg>
