<?xml version="1.0" encoding="UTF-8"?>
<svg width="20px" height="20px" viewBox="0 0 20 20" version="1.1" xmlns="http://www.w3.org/2000/svg" xmlns:xlink="http://www.w3.org/1999/xlink">
    <title>00/Icon/External Link</title>
    <g id="Symbols" stroke="none" stroke-width="1" fill="none" fill-rule="evenodd">
        <g id="03/Footer/PC" transform="translate(-158, -128)" fill="#9E9E9E" fill-rule="nonzero">
            <g id="link" transform="translate(80, 126)">
                <g id="icon" transform="translate(81.75, 5.75)">
                    <path d="M11.1607143,12.5 C11.9003841,12.5 12.5,11.9003841 12.5,11.1607143 L12.5,1.33928571 C12.5,0.599615914 11.9003841,0 11.1607143,0 L1.33928571,0 C0.599615914,0 0,0.599615914 0,1.33928571 L0,11.1607143 C0,11.9003841 0.599615914,12.5 1.33928571,12.5 L11.1607143,12.5 Z M11.1607143,11.6071429 L1.33928571,11.6071429 C1.09312875,11.6071429 0.892857143,11.4068713 0.892857143,11.1607143 L0.892857143,1.33928571 C0.892857143,1.09312875 1.09312875,0.892857143 1.33928571,0.892857143 L11.1607143,0.892857143 C11.4068713,0.892857143 11.6071429,1.09312875 11.6071429,1.33928571 L11.6071429,11.1607143 C11.6071429,11.4068713 11.4068713,11.6071429 11.1607143,11.6071429 Z M3.40799604,9.7233636 L8.85304042,4.27831922 L8.87276786,4.29804666 L8.86323111,6.80803571 C8.86323111,6.99293954 9.01314872,7.14285714 9.19805254,7.14285714 L9.47704315,7.14285714 C9.66194698,7.14285714 9.81186458,6.99293954 9.81186458,6.80803571 L9.82142857,3.01339286 C9.82142857,2.82846178 9.67151097,2.67857143 9.48660714,2.67857143 L5.69196429,2.68813542 C5.50703321,2.68813542 5.35714286,2.83802577 5.35714286,3.02295685 L5.35714286,3.30194746 C5.35714286,3.48685128 5.50706046,3.63676889 5.69196429,3.63676889 L8.20195334,3.62723214 L8.22168078,3.64695958 L2.7766364,9.09200396 C2.64590127,9.22276633 2.64590127,9.43475451 2.7766364,9.56551688 L2.93448312,9.7233636 C3.06527274,9.85409873 3.27726092,9.85409873 3.40799604,9.7233636 Z" id="e"></path>
                </g>
            </g>
        </g>
    </g>
</svg>