<svg width="100" height="100" viewBox="0 0 100 100" fill="none" xmlns="http://www.w3.org/2000/svg">
<circle cx="50" cy="50" r="50" fill="#EDF6FA"/>
<path d="M67.4781 34.9312C67.4781 29.4516 63.0594 25 57.6344 25C54.6375 25 51.8266 26.3672 49.9781 28.6641C48.1297 26.3781 45.3188 25 42.3219 25C36.8969 25 32.4781 29.4516 32.4781 34.9312C32.4781 46.6125 48.7859 55.1437 49.475 55.5047C49.6281 55.5812 49.8031 55.625 49.9781 55.625C50.1531 55.625 50.3172 55.5812 50.4812 55.5047C51.1703 55.1437 67.4781 46.6125 67.4781 34.9312ZM49.9781 53.2844C47.2875 51.775 34.6656 44.2172 34.6656 34.9312C34.6656 30.6656 38.1 27.1875 42.3219 27.1875C45.1 27.1875 47.6703 28.6969 49.0266 31.1359C49.4094 31.8359 50.5578 31.8359 50.9406 31.1359C52.2969 28.6969 54.8562 27.1875 57.6453 27.1875C61.8672 27.1875 65.3016 30.6547 65.3016 34.9312C65.3016 44.2281 52.6797 51.7859 49.9891 53.2844H49.9781ZM39.1391 57.1453C38.4391 57.0031 37.6953 56.8938 36.9297 56.8281C36.1422 56.7625 35.4203 56.4234 34.8844 55.8875L30.1375 51.1406C29.3719 50.375 28.3547 49.9812 27.3484 49.9594L26.1891 41.1C25.9703 39.4047 24.5047 38.125 22.7984 38.125C20.9063 38.125 19.375 39.6562 19.375 41.5484V58.1844C19.375 59.65 19.9438 61.0172 20.9719 62.0563L29.8531 70.9375H29.2078C28.6062 70.9375 28.1141 71.4297 28.1141 72.0312V76.4062C28.1141 77.0078 28.6062 77.5 29.2078 77.5C29.8094 77.5 30.3016 77.0078 30.3016 76.4062V73.125H45.6141V76.4062C45.6141 77.0078 46.1062 77.5 46.7078 77.5C47.3094 77.5 47.8016 77.0078 47.8016 76.4062V67.8531C47.8016 62.6578 44.1594 58.1625 39.15 57.1562L39.1391 57.1453ZM45.6031 70.9375H32.3359C32.1828 70.4125 31.9203 69.9203 31.5156 69.5266L22.5031 60.5141C21.8906 59.9016 21.5406 59.0594 21.5406 58.1953V41.5594C21.5406 40.8813 22.0984 40.3234 22.7766 40.3234C23.3891 40.3234 23.925 40.7828 24.0016 41.3953L25.2047 50.5609C25.0953 50.6266 24.9859 50.6922 24.8875 50.7687C24.0453 51.4578 23.5312 52.4641 23.4766 53.5469C23.4219 54.6297 23.8266 55.6797 24.5922 56.4453L32.2047 64.0578C32.6312 64.4844 33.3203 64.4844 33.7469 64.0578C34.1734 63.6312 34.1734 62.9422 33.7469 62.5156L26.1344 54.9031C25.8062 54.575 25.6313 54.1266 25.6531 53.6562C25.675 53.1859 25.8937 52.7594 26.2547 52.4641C26.9 51.9391 27.9062 52.0375 28.5625 52.6938L33.3094 57.4406C34.2063 58.3375 35.4094 58.8953 36.7109 59.0156C37.4 59.0812 38.0562 59.1688 38.6906 59.3C42.6938 60.1094 45.5922 63.7078 45.5922 67.8531V70.9375H45.6031ZM77.1797 38.125C75.4734 38.125 74.0078 39.4047 73.7891 41.1L72.6297 49.9594C71.6234 49.9812 70.6063 50.375 69.8406 51.1406L65.0938 55.8875C64.5578 56.4234 63.825 56.7625 63.0484 56.8281C62.2828 56.8938 61.5391 57.0031 60.8391 57.1453C55.8187 58.1516 52.1875 62.6578 52.1875 67.8422V76.3953C52.1875 76.9969 52.6797 77.4891 53.2812 77.4891C53.8828 77.4891 54.375 76.9969 54.375 76.3953V73.1141H69.6875V76.3953C69.6875 76.9969 70.1797 77.4891 70.7812 77.4891C71.3828 77.4891 71.875 76.9969 71.875 76.3953V72.0203C71.875 71.4188 71.3828 70.9266 70.7812 70.9266H70.1359L79.0172 62.0453C80.0453 61.0172 80.6141 59.6391 80.6141 58.1734V41.5375C80.6141 39.6453 79.0828 38.1141 77.1906 38.1141L77.1797 38.125ZM78.4156 58.1844C78.4156 59.0484 78.0656 59.8906 77.4531 60.5031L68.4406 69.5156C68.0469 69.9094 67.7734 70.4016 67.6203 70.9266H54.3531V67.8422C54.3531 63.6859 57.2516 60.0875 61.2547 59.2891C61.8781 59.1578 62.5453 59.0703 63.2344 59.0047C64.525 58.8844 65.7391 58.3266 66.6359 57.4297L71.3828 52.6828C72.0281 52.0266 73.0453 51.9281 73.6797 52.4531C74.0516 52.7594 74.2594 53.175 74.2922 53.6453C74.3141 54.1047 74.1391 54.5641 73.8109 54.8922L66.1984 62.5047C65.7719 62.9313 65.7719 63.6203 66.1984 64.0469C66.625 64.4734 67.3141 64.4734 67.7406 64.0469L75.3531 56.4344C76.1188 55.6687 76.5234 54.6187 76.4688 53.5359C76.4141 52.4531 75.9 51.4469 75.0578 50.7578C74.9594 50.6812 74.85 50.6156 74.7406 50.55L75.9438 41.3844C76.0203 40.7719 76.5563 40.3125 77.1688 40.3125C77.8469 40.3125 78.4047 40.8703 78.4047 41.5484V58.1844H78.4156Z" fill="#6BB5D8" stroke="#6BB5D8" stroke-width="0.625"/>
</svg>
