<svg width="36" height="36" viewBox="0 0 36 36" fill="none" xmlns="http://www.w3.org/2000/svg">
<rect width="36" height="36" rx="18" fill="#20528F"/>
<path d="M12 13.5C11.7188 13.5 11.5 13.75 11.5 14V14.7188L16.875 19.125C17.5312 19.6562 18.4375 19.6562 19.0938 19.125L24.5 14.7188V14C24.5 13.75 24.25 13.5 24 13.5H12ZM11.5 16.6562V22C11.5 22.2812 11.7188 22.5 12 22.5H24C24.25 22.5 24.5 22.2812 24.5 22V16.6562L20.0625 20.2812C18.8438 21.2812 17.125 21.2812 15.9375 20.2812L11.5 16.6562ZM10 14C10 12.9062 10.875 12 12 12H24C25.0938 12 26 12.9062 26 14V22C26 23.125 25.0938 24 24 24H12C10.875 24 10 23.125 10 22V14Z" fill="white"/>
</svg>
