<svg width="100" height="100" viewBox="0 0 100 100" fill="none" xmlns="http://www.w3.org/2000/svg">
<circle cx="50" cy="50" r="50" fill="#EDF6FA"/>
<path d="M75.2404 35.8654H64.1346V30.8173C64.1346 30.262 63.6803 29.8077 63.125 29.8077H58.0769V24.7596C58.0769 24.2043 57.6226 23.75 57.0673 23.75H42.9327C42.3774 23.75 41.9231 24.2043 41.9231 24.7596V29.8077H36.875C36.3197 29.8077 35.8654 30.262 35.8654 30.8173V35.8654H24.7596C24.2043 35.8654 23.75 36.3197 23.75 36.875V69.1827C23.75 69.738 24.2043 70.1923 24.7596 70.1923C25.3149 70.1923 25.7692 69.738 25.7692 69.1827V37.8846H35.8654V75.2404C35.8654 75.7957 36.3197 76.25 36.875 76.25C37.4303 76.25 37.8846 75.7957 37.8846 75.2404V31.8269H62.1154V75.2404C62.1154 75.7957 62.5697 76.25 63.125 76.25C63.6803 76.25 64.1346 75.7957 64.1346 75.2404V37.8846H74.2308V69.1827C74.2308 69.738 74.6851 70.1923 75.2404 70.1923C75.7957 70.1923 76.25 69.738 76.25 69.1827V36.875C76.25 36.3197 75.7957 35.8654 75.2404 35.8654ZM56.0577 29.8077H43.9423V25.7692H56.0577V29.8077ZM57.0673 37.8846H42.9327C42.3774 37.8846 41.9231 38.3389 41.9231 38.8942C41.9231 39.4495 42.3774 39.9038 42.9327 39.9038H57.0673C57.6226 39.9038 58.0769 39.4495 58.0769 38.8942C58.0769 38.3389 57.6226 37.8846 57.0673 37.8846ZM32.8365 41.9231H28.7981C28.2428 41.9231 27.7885 42.3774 27.7885 42.9327C27.7885 43.488 28.2428 43.9423 28.7981 43.9423H32.8365C33.3918 43.9423 33.8462 43.488 33.8462 42.9327C33.8462 42.3774 33.3918 41.9231 32.8365 41.9231ZM32.8365 47.9808H28.7981C28.2428 47.9808 27.7885 48.4351 27.7885 48.9904C27.7885 49.5457 28.2428 50 28.7981 50H32.8365C33.3918 50 33.8462 49.5457 33.8462 48.9904C33.8462 48.4351 33.3918 47.9808 32.8365 47.9808ZM32.8365 54.0385H28.7981C28.2428 54.0385 27.7885 54.4928 27.7885 55.0481C27.7885 55.6034 28.2428 56.0577 28.7981 56.0577H32.8365C33.3918 56.0577 33.8462 55.6034 33.8462 55.0481C33.8462 54.4928 33.3918 54.0385 32.8365 54.0385ZM32.8365 60.0962H28.7981C28.2428 60.0962 27.7885 60.5505 27.7885 61.1058C27.7885 61.6611 28.2428 62.1154 28.7981 62.1154H32.8365C33.3918 62.1154 33.8462 61.6611 33.8462 61.1058C33.8462 60.5505 33.3918 60.0962 32.8365 60.0962ZM71.2019 41.9231H67.1635C66.6082 41.9231 66.1539 42.3774 66.1539 42.9327C66.1539 43.488 66.6082 43.9423 67.1635 43.9423H71.2019C71.7572 43.9423 72.2115 43.488 72.2115 42.9327C72.2115 42.3774 71.7572 41.9231 71.2019 41.9231ZM71.2019 47.9808H67.1635C66.6082 47.9808 66.1539 48.4351 66.1539 48.9904C66.1539 49.5457 66.6082 50 67.1635 50H71.2019C71.7572 50 72.2115 49.5457 72.2115 48.9904C72.2115 48.4351 71.7572 47.9808 71.2019 47.9808ZM71.2019 54.0385H67.1635C66.6082 54.0385 66.1539 54.4928 66.1539 55.0481C66.1539 55.6034 66.6082 56.0577 67.1635 56.0577H71.2019C71.7572 56.0577 72.2115 55.6034 72.2115 55.0481C72.2115 54.4928 71.7572 54.0385 71.2019 54.0385ZM71.2019 60.0962H67.1635C66.6082 60.0962 66.1539 60.5505 66.1539 61.1058C66.1539 61.6611 66.6082 62.1154 67.1635 62.1154H71.2019C71.7572 62.1154 72.2115 61.6611 72.2115 61.1058C72.2115 60.5505 71.7572 60.0962 71.2019 60.0962ZM32.8365 66.1539H28.7981C28.2428 66.1539 27.7885 66.6082 27.7885 67.1635C27.7885 67.7188 28.2428 68.1731 28.7981 68.1731H32.8365C33.3918 68.1731 33.8462 67.7188 33.8462 67.1635C33.8462 66.6082 33.3918 66.1539 32.8365 66.1539ZM71.2019 66.1539H67.1635C66.6082 66.1539 66.1539 66.6082 66.1539 67.1635C66.1539 67.7188 66.6082 68.1731 67.1635 68.1731H71.2019C71.7572 68.1731 72.2115 67.7188 72.2115 67.1635C72.2115 66.6082 71.7572 66.1539 71.2019 66.1539ZM57.0673 43.9423H42.9327C42.3774 43.9423 41.9231 44.3966 41.9231 44.9519C41.9231 45.5072 42.3774 45.9615 42.9327 45.9615H57.0673C57.6226 45.9615 58.0769 45.5072 58.0769 44.9519C58.0769 44.3966 57.6226 43.9423 57.0673 43.9423ZM57.0673 50H42.9327C42.3774 50 41.9231 50.4543 41.9231 51.0096C41.9231 51.5649 42.3774 52.0192 42.9327 52.0192H57.0673C57.6226 52.0192 58.0769 51.5649 58.0769 51.0096C58.0769 50.4543 57.6226 50 57.0673 50ZM57.0673 56.0577H42.9327C42.3774 56.0577 41.9231 56.512 41.9231 57.0673C41.9231 57.6226 42.3774 58.0769 42.9327 58.0769H57.0673C57.6226 58.0769 58.0769 57.6226 58.0769 57.0673C58.0769 56.512 57.6226 56.0577 57.0673 56.0577ZM57.0673 62.1154H42.9327C42.3774 62.1154 41.9231 62.5697 41.9231 63.125C41.9231 63.6803 42.3774 64.1346 42.9327 64.1346H57.0673C57.6226 64.1346 58.0769 63.6803 58.0769 63.125C58.0769 62.5697 57.6226 62.1154 57.0673 62.1154ZM55.0481 68.1731H44.9519C44.3966 68.1731 43.9423 68.6274 43.9423 69.1827V75.2404C43.9423 75.7957 44.3966 76.25 44.9519 76.25C45.5072 76.25 45.9615 75.7957 45.9615 75.2404V70.1923H54.0385V75.2404C54.0385 75.7957 54.4928 76.25 55.0481 76.25C55.6034 76.25 56.0577 75.7957 56.0577 75.2404V69.1827C56.0577 68.6274 55.6034 68.1731 55.0481 68.1731Z" fill="#6BB5D8" stroke="#6BB5D8" stroke-width="0.625" stroke-linejoin="round"/>
</svg>
